<?xml version="1.0" encoding="utf-8"?>
<!-- Generator: Adobe Illustrator 15.1.0, SVG Export Plug-In . SVG Version: 6.00 Build 0)  -->
<!DOCTYPE svg PUBLIC "-//W3C//DTD SVG 1.1//EN" "http://www.w3.org/Graphics/SVG/1.1/DTD/svg11.dtd">
<svg version="1.1" id="Ebene_1" xmlns="http://www.w3.org/2000/svg" xmlns:xlink="http://www.w3.org/1999/xlink" x="0px" y="0px"
	 width="100px" height="100px" viewBox="0 0 100 100" enable-background="new 0 0 100 100" xml:space="preserve">
<g>
	<path d="M25.146,59.034l-1.93-0.104h-1.119l-0.053,6.493l0.053,3.445H20.7l0.104-3.324l-0.086-6.614h-1.119l-1.965,0.104
		l-0.086-0.138l0.104-1.068h7.494l0.102,0.138L25.146,59.034z"/>
	<path d="M34.896,59.12c0.809,0.93,1.213,2.268,1.213,4.014c0,1.871-0.43,3.318-1.291,4.34c-0.861,1.022-2.084,1.533-3.668,1.533
		c-1.494,0-2.648-0.482-3.463-1.446c-0.816-0.965-1.223-2.337-1.223-4.117c0-1.837,0.428-3.249,1.283-4.237
		c0.855-0.987,2.08-1.481,3.678-1.481C32.929,57.725,34.085,58.189,34.896,59.12z M27.876,63.271c0,3.055,1.119,4.581,3.359,4.581
		c2.295,0,3.443-1.492,3.443-4.479c0-1.526-0.277-2.661-0.834-3.401c-0.559-0.74-1.404-1.111-2.541-1.111
		C29.019,58.861,27.876,60.332,27.876,63.271z"/>
	<path d="M46.16,59.103c0.838,0.896,1.256,2.182,1.256,3.858c0,1.94-0.453,3.428-1.359,4.461c-0.908,1.034-2.211,1.551-3.91,1.551
		c-1.127,0-2.32-0.034-3.584-0.104h-0.016l0.086-3.324l-0.086-7.717h0.016l3.98-0.069C44.115,57.759,45.32,58.207,46.16,59.103z
		 M45.066,66.673c0.625-0.764,0.938-1.903,0.938-3.419c0-2.894-1.188-4.341-3.564-4.341c-0.725,0-1.557,0.023-2.498,0.069
		l-0.068,6.441l0.051,2.291c0.805,0.069,1.619,0.104,2.445,0.104C43.541,67.818,44.439,67.437,45.066,66.673z"/>
	<path d="M57.984,59.12c0.809,0.93,1.215,2.268,1.215,4.014c0,1.871-0.432,3.318-1.293,4.34c-0.861,1.022-2.084,1.533-3.668,1.533
		c-1.494,0-2.646-0.482-3.463-1.446c-0.814-0.965-1.223-2.337-1.223-4.117c0-1.837,0.428-3.249,1.283-4.237
		c0.855-0.987,2.082-1.481,3.678-1.481C56.018,57.725,57.174,58.189,57.984,59.12z M50.965,63.271c0,3.055,1.119,4.581,3.359,4.581
		c2.297,0,3.445-1.492,3.445-4.479c0-1.526-0.279-2.661-0.836-3.401s-1.404-1.111-2.541-1.111
		C52.107,58.861,50.965,60.332,50.965,63.271z"/>
	<path d="M63.314,68.869H61.92l0.086-3.324l-0.086-7.717h1.412l-0.086,7.596L63.314,68.869z"/>
	<path d="M72.822,58.259L72.6,59.585l-0.242,0.069c-0.689-0.528-1.412-0.793-2.17-0.793c-0.426,0-0.795,0.087-1.111,0.259
		s-0.557,0.396-0.723,0.672c-0.168,0.275-0.25,0.562-0.25,0.861c0,0.31,0.094,0.583,0.283,0.817
		c0.189,0.236,0.428,0.439,0.715,0.612c0.287,0.172,0.678,0.379,1.172,0.62c0.619,0.287,1.119,0.554,1.498,0.801
		s0.703,0.56,0.973,0.938c0.271,0.379,0.406,0.839,0.406,1.378c0,0.574-0.156,1.103-0.465,1.585
		c-0.311,0.482-0.748,0.867-1.311,1.154s-1.205,0.43-1.928,0.43c-1.057,0-2.045-0.258-2.963-0.774l0.172-1.413l0.189-0.086
		c0.402,0.391,0.846,0.681,1.334,0.87s0.957,0.284,1.404,0.284c0.438,0,0.824-0.086,1.162-0.259c0.34-0.172,0.598-0.401,0.775-0.688
		s0.268-0.592,0.268-0.913c0-0.482-0.184-0.87-0.551-1.162c-0.367-0.293-0.926-0.612-1.672-0.956
		c-0.607-0.299-1.096-0.565-1.463-0.802c-0.367-0.234-0.684-0.539-0.947-0.912c-0.266-0.373-0.396-0.83-0.396-1.37
		c0-0.562,0.152-1.079,0.457-1.55c0.303-0.471,0.729-0.841,1.273-1.111c0.545-0.27,1.168-0.404,1.869-0.404
		C71.152,57.742,71.973,57.914,72.822,58.259z"/>
	<path d="M82.348,59.034l-1.93-0.104h-1.119l-0.051,6.493l0.051,3.445h-1.395l0.104-3.324l-0.086-6.614h-1.121l-1.963,0.104
		l-0.086-0.138l0.104-1.068h7.492l0.104,0.138L82.348,59.034z"/>
</g>
<g>
	<path d="M57.768,32.551c-0.205-0.083-0.414-0.049-0.565,0.032c-0.44,0.23-11.736,7.313-11.736,7.313
		c-0.151,0.085-0.32,0.129-0.488,0.129c-0.167,0-0.338-0.044-0.488-0.131l-5.188-3.612c-0.54-0.383-0.866-0.619-0.88-0.628
		c-0.155-0.101-0.562-0.15-0.651,0.317c-0.049,0.271-0.049,0.723-0.04,1.162c0.004,0.222,0.118,0.456,0.252,0.563
		c0.005,0.004,0.029,0.02,0.038,0.025l0,0.001l6.47,4.39c0.15,0.087,0.322,0.129,0.488,0.129c0.168,0,0.337-0.041,0.488-0.127
		c0,0,13.272-8.294,13.362-8.357c0.153-0.103,0.36-0.457-0.035-0.724C58.562,32.882,58.174,32.716,57.768,32.551z"/>
	<path d="M57.768,38.397c-0.205-0.083-0.414-0.049-0.565,0.032c-0.44,0.23-11.736,7.313-11.736,7.313
		c-0.151,0.085-0.32,0.129-0.488,0.129c-0.167,0-0.338-0.044-0.488-0.131l-5.188-3.612c-0.54-0.383-0.866-0.619-0.88-0.628
		c-0.155-0.101-0.562-0.15-0.651,0.317c-0.049,0.271-0.049,0.723-0.04,1.162c0.004,0.222,0.118,0.456,0.252,0.563
		c0.005,0.004,0.029,0.02,0.038,0.025l0,0.001l6.47,4.39c0.15,0.087,0.322,0.129,0.488,0.129c0.168,0,0.337-0.041,0.488-0.127
		c0,0,13.272-8.294,13.362-8.357c0.153-0.103,0.36-0.457-0.035-0.724C58.562,38.729,58.174,38.562,57.768,38.397z"/>
	<path d="M37.982,31.794c0.029,0.023,0.137,0.095,0.277,0.187l6.23,4.227c0.15,0.087,0.322,0.129,0.488,0.129
		c0.168,0,0.337-0.041,0.488-0.127c0,0,13.272-8.294,13.362-8.357c0.153-0.103,0.36-0.457-0.035-0.724
		c-0.23-0.152-0.619-0.318-1.025-0.483c-0.205-0.083-0.414-0.049-0.565,0.032c-0.44,0.23-11.736,7.313-11.736,7.313
		c-0.151,0.085-0.32,0.129-0.488,0.129c-0.167,0-0.338-0.044-0.488-0.131l-5.388-3.752c-0.416-0.296-0.668-0.478-0.68-0.485
		c-0.155-0.101-0.562-0.15-0.651,0.317c-0.049,0.271-0.049,0.723-0.04,1.162C37.734,31.452,37.848,31.687,37.982,31.794z"/>
</g>
</svg>
